<?xml version="1.0" standalone="no"?>
<!DOCTYPE svg PUBLIC "-//W3C//DTD SVG 20010904//EN"
 "http://www.w3.org/TR/2001/REC-SVG-20010904/DTD/svg10.dtd">
<svg version="1.0" xmlns="http://www.w3.org/2000/svg"
 width="200.000000pt" height="200.000000pt" viewBox="0 0 200.000000 200.000000"
 preserveAspectRatio="xMidYMid meet">
<metadata>
Created by potrace 1.14, written by Peter Selinger 2001-2017
</metadata>
<g transform="translate(0.000000,200.000000) scale(0.100000,-0.100000)"
fill="#000000" stroke="none">
<path d="M762 1450 c-61 -28 -92 -80 -85 -148 7 -78 51 -120 135 -131 38 -4
53 -10 53 -21 0 -12 -12 -15 -55 -13 -50 1 -53 0 -35 -13 12 -9 33 -13 57 -10
47 6 58 12 58 35 0 27 -21 41 -64 41 -80 0 -129 48 -128 124 1 56 12 78 53
107 45 32 136 31 206 -1 l52 -25 -1 -115 c-1 -96 -3 -110 -12 -85 -27 74 -70
105 -145 105 -28 0 -41 4 -41 14 0 19 19 25 71 19 31 -3 41 -2 34 6 -14 14
-75 20 -103 10 -18 -7 -23 -15 -20 -36 3 -26 7 -28 58 -34 73 -9 86 -15 110
-54 47 -75 11 -173 -72 -196 -50 -13 -120 -4 -170 21 -21 11 -40 15 -43 11
-10 -17 86 -54 145 -57 80 -4 137 25 168 86 l23 45 -1 -35 c-3 -59 0 -80 10
-80 6 0 10 75 10 205 l0 205 126 0 c165 0 201 -15 229 -96 19 -56 2 -109 -48
-145 -35 -26 -48 -29 -114 -29 -42 0 -73 -4 -73 -10 0 -5 15 -10 33 -10 33 0
35 -2 52 -60 10 -33 22 -60 27 -60 10 0 10 13 -1 42 -4 13 -11 37 -15 53 -12
48 9 17 29 -42 9 -29 21 -53 26 -53 13 0 11 12 -7 55 -8 20 -14 44 -12 53 2
10 13 -10 24 -42 11 -33 25 -61 32 -64 7 -2 4 17 -8 54 -11 31 -20 62 -20 67
0 21 15 -6 35 -60 11 -31 25 -58 32 -60 8 -3 4 20 -11 66 l-24 69 20 19 c79
71 62 199 -33 252 -32 18 -54 21 -178 21 -136 0 -141 -1 -141 -21 0 -20 0 -20
-27 -1 -54 38 -162 48 -221 22z"/>
<path d="M763 1409 c-36 -23 -58 -80 -48 -122 8 -31 51 -77 73 -78 9 -1 34 -2
55 -3 61 -2 88 -54 47 -91 -22 -20 -97 -23 -129 -5 -13 7 -22 7 -26 0 -9 -15
42 -31 99 -32 42 0 54 4 73 27 47 54 18 114 -57 121 -74 6 -89 13 -106 45 -21
42 -11 94 23 116 34 23 117 25 166 6 54 -22 59 -7 6 17 -59 26 -134 26 -176
-1z"/>
<path d="M1045 1218 c0 -118 4 -193 10 -195 6 -2 10 59 9 169 0 95 2 179 4
186 3 8 35 12 113 12 104 0 110 -1 139 -27 36 -32 44 -75 24 -115 -20 -39 -48
-51 -126 -50 -37 0 -68 -4 -68 -9 0 -10 12 -12 88 -10 29 1 66 8 81 16 54 27
73 110 39 164 -26 42 -60 51 -190 51 l-123 0 0 -192z"/>
<path d="M785 1378 c-28 -16 -35 -28 -35 -64 0 -44 29 -66 95 -72 61 -5 94
-31 99 -78 9 -87 -87 -131 -194 -88 -23 9 -43 14 -46 11 -13 -13 50 -39 104
-44 119 -11 186 59 147 154 -17 41 -52 63 -101 64 -73 2 -109 52 -68 93 17 18
88 21 128 6 14 -5 28 -5 31 -1 15 25 -122 41 -160 19z"/>
<path d="M1098 1372 c-16 -3 -18 -20 -18 -178 0 -109 4 -174 10 -174 6 0 10
62 10 165 0 91 3 165 8 166 4 1 43 2 86 3 63 1 84 -3 103 -17 27 -21 30 -59 7
-81 -16 -16 -22 -18 -84 -21 -66 -4 -70 -5 -70 -14 0 -10 125 -7 152 4 22 9
42 59 34 90 -11 42 -48 58 -139 60 -45 0 -90 -1 -99 -3z"/>
<path d="M1125 1330 c-6 -10 -8 -81 -6 -252 1 -32 6 -58 11 -58 6 0 10 56 10
149 l0 149 68 -2 c60 -1 67 -3 67 -21 0 -18 -8 -20 -62 -23 -35 -2 -63 -7 -63
-12 0 -14 124 -12 138 2 18 18 15 56 -5 66 -25 14 -150 14 -158 2z"/>
<path d="M231 941 c-22 -14 -16 -57 13 -91 29 -35 34 -60 11 -60 -9 0 -15 9
-15 21 0 18 -2 19 -15 9 -21 -17 -19 -27 9 -45 19 -13 29 -14 45 -5 30 15 26
51 -9 95 -33 41 -36 50 -19 60 6 4 13 -2 16 -14 7 -26 33 -28 33 -3 0 35 -37
53 -69 33z"/>
<path d="M322 858 c3 -95 20 -129 26 -50 2 28 8 42 18 42 10 0 14 -12 14 -40
0 -29 4 -40 15 -40 12 0 15 17 15 90 0 72 -3 90 -14 90 -10 0 -16 -13 -18 -37
-4 -52 -28 -56 -28 -4 0 30 -4 41 -15 41 -13 0 -15 -15 -13 -92z"/>
<path d="M456 923 c-9 -42 -14 -67 -21 -117 -6 -40 -5 -45 9 -40 9 3 16 12 16
20 0 21 23 17 38 -6 23 -37 29 -12 15 62 -7 40 -16 81 -19 91 -8 26 -32 20
-38 -10z m29 -72 c4 -22 2 -32 -5 -29 -7 2 -11 7 -11 11 1 4 1 19 1 34 0 34 7
26 15 -16z"/>
<path d="M540 860 c0 -72 3 -90 14 -90 9 0 16 12 18 33 l3 32 18 -39 c21 -48
44 -38 26 11 -8 23 -7 37 1 53 13 24 5 70 -13 82 -7 4 -24 8 -39 8 l-28 0 0
-90z m58 32 c2 -24 -1 -32 -12 -32 -12 0 -16 10 -16 36 0 45 24 42 28 -4z"/>
<path d="M640 947 c0 -2 7 -27 16 -57 9 -29 17 -70 19 -89 2 -20 3 -38 4 -40
4 -14 29 24 26 40 -2 11 5 47 16 81 23 73 23 68 4 68 -9 0 -18 -12 -22 -30 -8
-43 -20 -45 -27 -5 -4 21 -13 35 -21 35 -8 0 -15 -1 -15 -3z"/>
<path d="M759 943 c-1 -5 -2 -44 -3 -88 -2 -84 5 -98 46 -87 24 6 23 22 -1 22
-18 0 -19 7 -17 68 1 37 0 73 -2 80 -4 13 -21 17 -23 5z"/>
<path d="M885 941 c-3 -5 -5 -45 -4 -89 1 -74 3 -80 23 -84 12 -3 27 -3 34 0
19 6 14 22 -8 22 -18 0 -20 7 -20 80 0 72 -9 97 -25 71z"/>
<path d="M953 938 c18 -50 36 -128 32 -146 -3 -16 1 -22 15 -22 14 0 18 6 16
28 -1 15 6 51 16 81 22 65 22 71 4 71 -8 0 -17 -15 -20 -35 -8 -41 -21 -39
-29 5 -4 19 -13 30 -23 30 -9 0 -14 -6 -11 -12z"/>
<path d="M1069 938 c-7 -87 -3 -168 8 -168 9 0 13 17 14 53 l0 52 20 -52 c31
-80 45 -69 45 34 -1 60 -5 88 -13 91 -9 2 -13 -12 -14 -50 l0 -53 -20 53 c-19
49 -38 68 -40 40z"/>
<path d="M1189 943 c-1 -5 -2 -45 -3 -90 -1 -62 1 -83 11 -83 9 0 13 17 14 53
l1 52 17 -50 c10 -27 24 -51 32 -53 12 -2 14 14 14 84 0 60 -4 89 -13 92 -8 2
-12 -12 -13 -50 l0 -53 -21 53 c-18 46 -36 66 -39 45z"/>
<path d="M1352 858 c3 -94 18 -123 28 -52 l5 38 13 -37 c8 -21 20 -37 29 -37
11 0 13 5 7 18 -8 18 -9 51 -1 94 7 37 -17 68 -54 68 l-30 0 3 -92z m54 17
c-9 -36 -26 -22 -26 23 0 34 1 35 16 20 11 -11 15 -25 10 -43z"/>
<path d="M1460 860 c0 -73 3 -90 15 -90 12 0 15 17 15 90 0 73 -3 90 -15 90
-12 0 -15 -17 -15 -90z"/>
<path d="M1522 858 l3 -91 28 -2 c35 -1 47 14 18 22 -19 5 -21 12 -21 84 0 64
-3 79 -15 79 -13 0 -15 -15 -13 -92z"/>
<path d="M1600 861 c0 -84 1 -89 23 -93 12 -2 28 -3 35 0 19 6 14 22 -8 22
-16 0 -20 7 -20 30 0 20 5 30 15 30 8 0 15 5 15 10 0 6 -7 10 -15 10 -10 0
-15 10 -15 29 0 24 4 29 20 26 13 -2 20 2 20 11 0 9 -11 14 -35 14 l-35 0 0
-89z"/>
<path d="M1680 933 c1 -10 7 -36 15 -58 8 -22 15 -55 15 -72 0 -23 5 -33 15
-33 10 0 15 10 15 33 0 17 7 50 15 72 8 22 14 48 15 58 0 32 -23 13 -35 -29
l-11 -39 -10 39 c-10 41 -34 62 -34 29z"/>
<path d="M200 648 c0 -10 -74 -9 770 -9 872 0 845 0 837 7 -8 9 -1607 10
-1607 2z"/>
</g>
</svg>
